STARTFONT 2.3
FONT -FontForge-Righteous-Book-R-Normal--12-120-72-72-P-64-ISO10646-1
SIZE 12 72 72  2
FONTBOUNDINGBOX 15 15 -2 -3
COMMENT "Generated by fontforge, http://fontforge.sourceforge.net"
COMMENT "Copyright (c) 2011 by Brian J. Bonislawsky DBA Astigmatic (AOETI) (astigma@astigmatic.com), with ReservedFont Name "Righteous""
STARTPROPERTIES 40
FOUNDRY "FontForge"
FAMILY_NAME "Righteous"
WEIGHT_NAME "Book"
SLANT "R"
SETWIDTH_NAME "Normal"
ADD_STYLE_NAME ""
PIXEL_SIZE 12
POINT_SIZE 120
RESOLUTION_X 72
RESOLUTION_Y 72
SPACING "P"
AVERAGE_WIDTH 64
CHARSET_REGISTRY "ISO10646"
CHARSET_ENCODING "1"
FONTNAME_REGISTRY ""
CHARSET_COLLECTIONS "ISO8859-2 ISO8859-9 ISO8859-4 ISO10646-1"
BITS_PER_PIXEL 2
FONT_NAME "Righteous-Regular"
FACE_NAME "Righteous"
COPYRIGHT "Copyright (c) 2011 by Brian J. Bonislawsky DBA Astigmatic (AOETI) (astigma@astigmatic.com), with ReservedFont Name "Righteous""
FONT_VERSION "1.000"
FONT_ASCENT 10
FONT_DESCENT 2
UNDERLINE_POSITION -2
UNDERLINE_THICKNESS 1
X_HEIGHT 6
CAP_HEIGHT 8
RAW_ASCENT 799
RAW_DESCENT 200
NORM_SPACE 3
RELATIVE_WEIGHT 40
RELATIVE_SETWIDTH 50
SUPERSCRIPT_X 0
SUPERSCRIPT_Y 5
SUPERSCRIPT_SIZE 7
SUBSCRIPT_X 0
SUBSCRIPT_Y 1
SUBSCRIPT_SIZE 7
AVG_LOWERCASE_WIDTH 63
AVG_UPPERCASE_WIDTH 75
ENDPROPERTIES
CHARS 372
STARTCHAR space
ENCODING 32
SWIDTH 279 0
DWIDTH 3 0
BBX 1 1 0 0
BITMAP
00
ENDCHAR
STARTCHAR exclam
ENCODING 33
SWIDTH 274 0
DWIDTH 3 0
BBX 3 10 0 -1
BITMAP
14
78
78
74
34
34
34
24
78
10
ENDCHAR
STARTCHAR quotedbl
ENCODING 34
SWIDTH 409 0
DWIDTH 5 0
BBX 5 4 0 5
BITMAP
1500
7740
7700
1100
ENDCHAR
STARTCHAR numbersign
ENCODING 35
SWIDTH 561 0
DWIDTH 7 0
BBX 7 6 0 1
BITMAP
0AA0
2FF4
2EE0
6ED0
7B90
2640
ENDCHAR
STARTCHAR dollar
ENCODING 36
SWIDTH 458 0
DWIDTH 6 0
BBX 5 9 0 0
BITMAP
0400
0900
2F80
7540
7F40
16C0
7F80
1900
0900
ENDCHAR
STARTCHAR percent
ENCODING 37
SWIDTH 685 0
DWIDTH 8 0
BBX 8 9 0 0
BITMAP
1404
7A28
A670
7A90
29C0
03BD
06A6
0DA6
287D
ENDCHAR
STARTCHAR ampersand
ENCODING 38
SWIDTH 485 0
DWIDTH 6 0
BBX 5 9 0 0
BITMAP
0100
0740
3FC0
7000
3E00
3900
7540
2FC0
0600
ENDCHAR
STARTCHAR quotesingle
ENCODING 39
SWIDTH 238 0
DWIDTH 3 0
BBX 3 4 0 5
BITMAP
10
74
70
10
ENDCHAR
STARTCHAR parenleft
ENCODING 40
SWIDTH 351 0
DWIDTH 4 0
BBX 4 12 0 -2
BITMAP
0A
2D
38
74
74
B0
B4
74
38
2C
1E
01
ENDCHAR
STARTCHAR parenright
ENCODING 41
SWIDTH 351 0
DWIDTH 4 0
BBX 4 12 0 -2
BITMAP
60
38
2D
1E
0E
0E
0E
1E
1D
3C
74
10
ENDCHAR
STARTCHAR asterisk
ENCODING 42
SWIDTH 589 0
DWIDTH 7 0
BBX 7 6 0 4
BITMAP
0740
2760
7FF4
1FD0
1FE0
2CA0
ENDCHAR
STARTCHAR plus
ENCODING 43
SWIDTH 485 0
DWIDTH 6 0
BBX 6 5 0 2
BITMAP
0A00
0E00
BFD0
6F90
0E00
ENDCHAR
STARTCHAR comma
ENCODING 44
SWIDTH 264 0
DWIDTH 3 0
BBX 3 4 0 -2
BITMAP
20
78
24
10
ENDCHAR
STARTCHAR hyphen
ENCODING 45
SWIDTH 528 0
DWIDTH 6 0
BBX 6 2 0 3
BITMAP
7FE0
2A90
ENDCHAR
STARTCHAR period
ENCODING 46
SWIDTH 263 0
DWIDTH 3 0
BBX 3 3 0 -1
BITMAP
20
78
10
ENDCHAR
STARTCHAR slash
ENCODING 47
SWIDTH 490 0
DWIDTH 6 0
BBX 6 9 0 0
BITMAP
0050
02D0
0380
0740
0B00
1E00
2C00
3800
7400
ENDCHAR
STARTCHAR zero
ENCODING 48
SWIDTH 642 0
DWIDTH 8 0
BBX 8 9 0 0
BITMAP
0540
2FF4
3878
742C
701D
741D
742C
3EB8
1FE0
ENDCHAR
STARTCHAR one
ENCODING 49
SWIDTH 317 0
DWIDTH 4 0
BBX 3 9 0 0
BITMAP
54
BC
2C
2C
2C
2C
2C
2C
2C
ENDCHAR
STARTCHAR two
ENCODING 50
SWIDTH 570 0
DWIDTH 7 0
BBX 7 9 0 0
BITMAP
1540
3FE0
15B4
0074
1FF0
7E80
7400
7AA0
7FF4
ENDCHAR
STARTCHAR three
ENCODING 51
SWIDTH 586 0
DWIDTH 7 0
BBX 7 9 0 0
BITMAP
1540
7FE0
15B4
0074
1FF0
1AF4
0074
6AF4
7FD0
ENDCHAR
STARTCHAR four
ENCODING 52
SWIDTH 630 0
DWIDTH 8 0
BBX 7 9 0 0
BITMAP
1400
3C60
3874
3874
7474
79B8
BFFC
55B4
0074
ENDCHAR
STARTCHAR five
ENCODING 53
SWIDTH 585 0
DWIDTH 7 0
BBX 7 9 0 0
BITMAP
1550
3FF4
3950
7940
7FE0
15B4
0038
6AF4
7FD0
ENDCHAR
STARTCHAR six
ENCODING 54
SWIDTH 615 0
DWIDTH 7 0
BBX 7 10 0 -1
BITMAP
0140
0F00
2D00
3FE0
7DB8
B42C
743C
3EB8
1FE0
0100
ENDCHAR
STARTCHAR seven
ENCODING 55
SWIDTH 516 0
DWIDTH 6 0
BBX 6 9 0 0
BITMAP
5550
BFF0
55E0
02D0
03C0
0740
0B00
0E00
1D00
ENDCHAR
STARTCHAR eight
ENCODING 56
SWIDTH 618 0
DWIDTH 7 0
BBX 7 10 0 -1
BITMAP
0680
2FF0
3874
39B4
2FF0
7978
B02C
7978
2FE0
0100
ENDCHAR
STARTCHAR nine
ENCODING 57
SWIDTH 616 0
DWIDTH 7 0
BBX 7 9 0 0
BITMAP
0640
2FF0
7878
B03C
743C
3EF8
1AF4
00E0
07C0
ENDCHAR
STARTCHAR colon
ENCODING 58
SWIDTH 276 0
DWIDTH 3 0
BBX 3 6 0 -1
BITMAP
34
74
00
24
78
10
ENDCHAR
STARTCHAR semicolon
ENCODING 59
SWIDTH 276 0
DWIDTH 3 0
BBX 3 7 0 -2
BITMAP
34
74
00
24
78
24
10
ENDCHAR
STARTCHAR less
ENCODING 60
SWIDTH 478 0
DWIDTH 6 0
BBX 5 7 0 1
BITMAP
0280
0B80
2E00
7C00
2E00
0BC0
0140
ENDCHAR
STARTCHAR equal
ENCODING 61
SWIDTH 539 0
DWIDTH 6 0
BBX 6 5 0 2
BITMAP
1540
7FE0
1550
7FE0
6AA0
ENDCHAR
STARTCHAR greater
ENCODING 62
SWIDTH 478 0
DWIDTH 6 0
BBX 4 7 1 1
BITMAP
90
F4
3D
1F
7D
F4
90
ENDCHAR
STARTCHAR question
ENCODING 63
SWIDTH 603 0
DWIDTH 7 0
BBX 7 10 0 -1
BITMAP
5540
BFF4
1578
0038
07F4
0F90
0E00
0500
1E00
0400
ENDCHAR
STARTCHAR at
ENCODING 64
SWIDTH 629 0
DWIDTH 8 0
BBX 7 8 0 -1
BITMAP
0540
2EB4
76AC
6ADC
6AEC
3554
1F80
0100
ENDCHAR
STARTCHAR A
ENCODING 65
SWIDTH 673 0
DWIDTH 8 0
BBX 8 9 0 0
BITMAP
0140
1FF4
3D7C
741D
741D
796D
7FFD
796D
741D
ENDCHAR
STARTCHAR B
ENCODING 66
SWIDTH 666 0
DWIDTH 8 0
BBX 8 9 0 0
BITMAP
1550
7FF8
796D
741D
7FFC
7ABD
741D
7EBD
7FF4
ENDCHAR
STARTCHAR C
ENCODING 67
SWIDTH 640 0
DWIDTH 8 0
BBX 8 9 0 0
BITMAP
0150
1FFD
3D58
7400
B000
B000
7800
2EAC
0BF8
ENDCHAR
STARTCHAR D
ENCODING 68
SWIDTH 653 0
DWIDTH 8 0
BBX 8 9 0 0
BITMAP
1540
7FE0
79B8
742D
741D
741D
743C
7EF4
7F90
ENDCHAR
STARTCHAR E
ENCODING 69
SWIDTH 578 0
DWIDTH 7 0
BBX 7 9 0 0
BITMAP
1554
7FF8
7950
7400
7FD0
7A80
7400
7EA4
7FF8
ENDCHAR
STARTCHAR F
ENCODING 70
SWIDTH 562 0
DWIDTH 7 0
BBX 7 9 0 0
BITMAP
1554
7FF8
7954
7400
7FC0
7A80
7400
7400
7400
ENDCHAR
STARTCHAR G
ENCODING 71
SWIDTH 665 0
DWIDTH 8 0
BBX 8 9 0 0
BITMAP
0150
1FFD
3E58
7400
B004
B00D
780D
2EAD
0BF8
ENDCHAR
STARTCHAR H
ENCODING 72
SWIDTH 689 0
DWIDTH 8 0
BBX 8 9 0 0
BITMAP
1405
741E
741E
741E
7FFE
7AAE
741E
741E
741E
ENDCHAR
STARTCHAR I
ENCODING 73
SWIDTH 270 0
DWIDTH 3 0
BBX 3 9 0 0
BITMAP
14
74
74
74
74
74
74
74
74
ENDCHAR
STARTCHAR J
ENCODING 74
SWIDTH 416 0
DWIDTH 5 0
BBX 5 9 0 0
BITMAP
0100
0740
0740
0740
0740
0740
0B40
AE00
B800
ENDCHAR
STARTCHAR K
ENCODING 75
SWIDTH 625 0
DWIDTH 8 0
BBX 8 9 0 0
BITMAP
1414
7438
74B0
76D0
7BC0
7FE0
7CB0
7878
742D
ENDCHAR
STARTCHAR L
ENCODING 76
SWIDTH 562 0
DWIDTH 7 0
BBX 7 9 0 0
BITMAP
1400
7400
7400
7400
7400
7400
7400
7EA4
7FF8
ENDCHAR
STARTCHAR M
ENCODING 77
SWIDTH 819 0
DWIDTH 10 0
BBX 9 9 0 0
BITMAP
051500
2FFF80
79F6C0
74E2C0
74E2C0
74E2C0
74E2C0
74E2C0
74E2C0
ENDCHAR
STARTCHAR N
ENCODING 78
SWIDTH 689 0
DWIDTH 8 0
BBX 8 9 0 0
BITMAP
1405
7C1E
7E1E
7F5E
7BDE
75EE
74BE
747E
742E
ENDCHAR
STARTCHAR O
ENCODING 79
SWIDTH 777 0
DWIDTH 9 0
BBX 9 9 0 0
BITMAP
015000
1FFD00
3D5F40
740380
B002C0
B002C0
780780
2EAF00
0BF800
ENDCHAR
STARTCHAR P
ENCODING 80
SWIDTH 642 0
DWIDTH 8 0
BBX 8 9 0 0
BITMAP
1540
7FF4
797C
741D
741D
797C
7FF4
7940
7400
ENDCHAR
STARTCHAR Q
ENCODING 81
SWIDTH 777 0
DWIDTH 9 0
BBX 9 11 0 -2
BITMAP
015000
1FFD00
3D5F40
740380
B002C0
B002C0
780780
2EAF00
0BFC00
002C00
001900
ENDCHAR
STARTCHAR R
ENCODING 82
SWIDTH 651 0
DWIDTH 8 0
BBX 8 9 0 0
BITMAP
1540
7FF4
797C
741D
741D
797C
7FF4
79B4
7438
ENDCHAR
STARTCHAR S
ENCODING 83
SWIDTH 610 0
DWIDTH 7 0
BBX 7 9 0 0
BITMAP
0554
3FF8
B554
B400
7FE0
1AB8
002C
6AB8
7FE0
ENDCHAR
STARTCHAR T
ENCODING 84
SWIDTH 578 0
DWIDTH 7 0
BBX 7 9 0 0
BITMAP
5554
FFF8
5B94
0740
0740
0740
0740
0740
0740
ENDCHAR
STARTCHAR U
ENCODING 85
SWIDTH 673 0
DWIDTH 8 0
BBX 8 9 0 0
BITMAP
1004
741D
741D
741D
741D
741D
782D
2EB8
0BE0
ENDCHAR
STARTCHAR V
ENCODING 86
SWIDTH 602 0
DWIDTH 7 0
BBX 7 9 0 0
BITMAP
5014
B43C
7478
38B4
2CF0
1EE0
0FD0
0BC0
0780
ENDCHAR
STARTCHAR W
ENCODING 87
SWIDTH 819 0
DWIDTH 10 0
BBX 9 9 0 0
BITMAP
105140
74E2C0
74E2C0
74E2C0
74E2C0
74E2C0
74E2C0
3EFBC0
1FAF40
ENDCHAR
STARTCHAR X
ENCODING 88
SWIDTH 608 0
DWIDTH 7 0
BBX 7 9 0 0
BITMAP
5014
7878
2DF0
1FE0
0BC0
0BD0
1EE0
3CB4
B43C
ENDCHAR
STARTCHAR Y
ENCODING 89
SWIDTH 620 0
DWIDTH 7 0
BBX 7 9 0 0
BITMAP
5014
B02C
B02C
B02C
7978
2FF0
0780
0380
0380
ENDCHAR
STARTCHAR Z
ENCODING 90
SWIDTH 586 0
DWIDTH 7 0
BBX 7 9 0 0
BITMAP
5554
BFF4
56E0
02D0
0780
0F40
1E00
3EA8
7FF8
ENDCHAR
STARTCHAR bracketleft
ENCODING 91
SWIDTH 380 0
DWIDTH 5 0
BBX 4 12 0 -2
BITMAP
2A
7F
74
74
74
74
74
74
74
79
7F
15
ENDCHAR
STARTCHAR backslash
ENCODING 92
SWIDTH 490 0
DWIDTH 6 0
BBX 6 9 0 0
BITMAP
5000
7400
3C00
1D00
0E00
0B00
0780
02C0
01D0
ENDCHAR
STARTCHAR bracketright
ENCODING 93
SWIDTH 380 0
DWIDTH 5 0
BBX 4 12 0 -2
BITMAP
69
BE
0E
0E
0E
0E
0E
0E
0E
5E
BE
14
ENDCHAR
STARTCHAR asciicircum
ENCODING 94
SWIDTH 293 0
DWIDTH 4 0
BBX 4 3 0 6
BITMAP
10
78
A9
ENDCHAR
STARTCHAR underscore
ENCODING 95
SWIDTH 598 0
DWIDTH 7 0
BBX 5 2 1 -3
BITMAP
AA80
AA80
ENDCHAR
STARTCHAR grave
ENCODING 96
SWIDTH 225 0
DWIDTH 3 0
BBX 3 2 0 6
BITMAP
A0
24
ENDCHAR
STARTCHAR a
ENCODING 97
SWIDTH 607 0
DWIDTH 7 0
BBX 7 7 0 0
BITMAP
0540
2FE8
78B8
B038
B038
7AF8
1FD8
ENDCHAR
STARTCHAR b
ENCODING 98
SWIDTH 597 0
DWIDTH 7 0
BBX 7 9 0 0
BITMAP
6000
B000
B540
BFF0
B878
B028
7438
3EB4
1FE0
ENDCHAR
STARTCHAR c
ENCODING 99
SWIDTH 521 0
DWIDTH 6 0
BBX 6 7 0 0
BITMAP
0540
2FE0
78A0
B000
B000
7AE0
1FD0
ENDCHAR
STARTCHAR d
ENCODING 100
SWIDTH 606 0
DWIDTH 7 0
BBX 7 9 0 0
BITMAP
0028
0038
0578
2FF8
78B8
B038
B038
7EF8
1FD8
ENDCHAR
STARTCHAR e
ENCODING 101
SWIDTH 524 0
DWIDTH 6 0
BBX 6 7 0 0
BITMAP
0540
2FE0
79E0
B380
BB00
7EE0
1FD0
ENDCHAR
STARTCHAR f
ENCODING 102
SWIDTH 395 0
DWIDTH 5 0
BBX 5 10 0 0
BITMAP
0140
1FC0
2D40
7940
BF80
7940
3800
3800
3800
3800
ENDCHAR
STARTCHAR g
ENCODING 103
SWIDTH 607 0
DWIDTH 7 0
BBX 7 10 0 -3
BITMAP
0540
2FE8
78B8
B038
B038
7EF8
1FF8
01B4
07E0
0140
ENDCHAR
STARTCHAR h
ENCODING 104
SWIDTH 562 0
DWIDTH 7 0
BBX 7 9 0 0
BITMAP
6000
7400
7500
7FD0
79B0
7474
7474
7474
7474
ENDCHAR
STARTCHAR i
ENCODING 105
SWIDTH 235 0
DWIDTH 3 0
BBX 3 9 0 0
BITMAP
74
74
10
74
74
74
74
74
74
ENDCHAR
STARTCHAR j
ENCODING 106
SWIDTH 237 0
DWIDTH 3 0
BBX 5 12 -2 -3
BITMAP
0740
0740
0100
0740
0740
0740
0740
0740
0740
1F00
BD00
5000
ENDCHAR
STARTCHAR k
ENCODING 107
SWIDTH 539 0
DWIDTH 6 0
BBX 7 9 0 0
BITMAP
6000
7400
7410
74E0
76C0
7B80
7FC0
79E0
74B4
ENDCHAR
STARTCHAR l
ENCODING 108
SWIDTH 235 0
DWIDTH 3 0
BBX 3 9 0 0
BITMAP
60
74
74
74
74
74
74
74
74
ENDCHAR
STARTCHAR m
ENCODING 109
SWIDTH 762 0
DWIDTH 9 0
BBX 9 7 0 0
BITMAP
051400
7FFF00
7AE740
75D380
75D380
75D380
75D380
ENDCHAR
STARTCHAR n
ENCODING 110
SWIDTH 562 0
DWIDTH 7 0
BBX 7 7 0 0
BITMAP
0500
7FD0
79B0
7474
7474
7474
7474
ENDCHAR
STARTCHAR o
ENCODING 111
SWIDTH 579 0
DWIDTH 7 0
BBX 7 7 0 0
BITMAP
0540
2FE0
78B4
B038
B038
7AF4
1FD0
ENDCHAR
STARTCHAR p
ENCODING 112
SWIDTH 608 0
DWIDTH 7 0
BBX 7 10 0 -3
BITMAP
0140
6FF4
7978
742C
742C
7EB8
7BE0
7400
7400
1000
ENDCHAR
STARTCHAR q
ENCODING 113
SWIDTH 607 0
DWIDTH 7 0
BBX 7 10 0 -3
BITMAP
0540
2FE8
78B8
B038
B038
7AF8
1FF8
0038
0038
0014
ENDCHAR
STARTCHAR r
ENCODING 114
SWIDTH 414 0
DWIDTH 5 0
BBX 5 7 0 0
BITMAP
0140
6F80
7940
7400
7400
7400
7400
ENDCHAR
STARTCHAR s
ENCODING 115
SWIDTH 523 0
DWIDTH 6 0
BBX 6 7 0 0
BITMAP
0540
7FE0
B550
7F90
1AF0
6AF0
BFD0
ENDCHAR
STARTCHAR t
ENCODING 116
SWIDTH 437 0
DWIDTH 5 0
BBX 5 9 0 0
BITMAP
2400
3800
7940
BFC0
7940
3800
3800
2E80
0BC0
ENDCHAR
STARTCHAR u
ENCODING 117
SWIDTH 562 0
DWIDTH 7 0
BBX 6 7 0 0
BITMAP
1010
7070
7070
7070
74B0
3AF0
1FA0
ENDCHAR
STARTCHAR v
ENCODING 118
SWIDTH 532 0
DWIDTH 6 0
BBX 6 7 0 0
BITMAP
5010
B0B0
74E0
39D0
2FC0
1F80
0B40
ENDCHAR
STARTCHAR w
ENCODING 119
SWIDTH 756 0
DWIDTH 9 0
BBX 9 7 0 0
BITMAP
104100
71D380
71D380
71D380
71D380
7AEB40
2FBE00
ENDCHAR
STARTCHAR x
ENCODING 120
SWIDTH 528 0
DWIDTH 6 0
BBX 6 7 0 0
BITMAP
5050
74E0
2FC0
0F40
1F80
3ED0
B4F0
ENDCHAR
STARTCHAR y
ENCODING 121
SWIDTH 562 0
DWIDTH 7 0
BBX 6 10 0 -3
BITMAP
1010
7070
7070
7070
74B0
3AF0
1FF0
05E0
0FD0
0500
ENDCHAR
STARTCHAR z
ENCODING 122
SWIDTH 481 0
DWIDTH 6 0
BBX 6 7 0 0
BITMAP
5540
BFC0
5B80
0B00
1D00
3E90
7FE0
ENDCHAR
STARTCHAR braceleft
ENCODING 123
SWIDTH 466 0
DWIDTH 6 0
BBX 5 12 0 -2
BITMAP
0680
0FC0
1E00
1D00
1D00
B800
6D00
1D00
1D00
1E40
0BC0
0140
ENDCHAR
STARTCHAR bar
ENCODING 124
SWIDTH 267 0
DWIDTH 3 0
BBX 3 12 0 -2
BITMAP
24
74
74
74
74
74
74
74
74
74
74
10
ENDCHAR
STARTCHAR braceright
ENCODING 125
SWIDTH 466 0
DWIDTH 6 0
BBX 6 12 0 -2
BITMAP
6800
BE00
0E00
0E00
0B00
07D0
0B90
0E00
0E00
5E00
BD00
1000
ENDCHAR
STARTCHAR asciitilde
ENCODING 126
SWIDTH 451 0
DWIDTH 5 0
BBX 5 3 0 3
BITMAP
1540
7F80
6240
ENDCHAR
STARTCHAR nonbreakingspace
ENCODING 160
SWIDTH 279 0
DWIDTH 3 0
BBX 1 1 0 0
BITMAP
00
ENDCHAR
STARTCHAR exclamdown
ENCODING 161
SWIDTH 274 0
DWIDTH 3 0
BBX 3 9 0 -2
BITMAP
78
24
24
34
34
74
78
78
64
ENDCHAR
STARTCHAR cent
ENCODING 162
SWIDTH 462 0
DWIDTH 6 0
BBX 5 9 0 0
BITMAP
0500
0A00
1F40
7580
6000
7040
2F80
0A00
0A00
ENDCHAR
STARTCHAR sterling
ENCODING 163
SWIDTH 681 0
DWIDTH 8 0
BBX 8 9 0 0
BITMAP
0140
0B80
1E40
1D00
7F40
7F40
1D05
1EAE
1FF8
ENDCHAR
STARTCHAR currency
ENCODING 164
SWIDTH 454 0
DWIDTH 5 0
BBX 5 5 0 2
BITMAP
0040
7F80
3280
3280
7EC0
ENDCHAR
STARTCHAR yen
ENCODING 165
SWIDTH 653 0
DWIDTH 8 0
BBX 8 9 0 0
BITMAP
5004
741D
741D
741D
3D7C
1FF4
3FFC
17D4
0380
ENDCHAR
STARTCHAR brokenbar
ENCODING 166
SWIDTH 269 0
DWIDTH 3 0
BBX 3 12 0 -2
BITMAP
24
74
74
74
74
10
24
74
74
74
74
10
ENDCHAR
STARTCHAR section
ENCODING 167
SWIDTH 569 0
DWIDTH 7 0
BBX 7 9 0 0
BITMAP
0550
3FE0
7950
3FE0
79B4
7EF0
1AF0
6AB4
7FE0
ENDCHAR
STARTCHAR dieresis
ENCODING 168
SWIDTH 300 0
DWIDTH 4 0
BBX 4 2 0 6
BITMAP
99
95
ENDCHAR
STARTCHAR copyright
ENCODING 169
SWIDTH 655 0
DWIDTH 8 0
BBX 8 7 0 1
BITMAP
0690
19A4
6A88
5809
6809
2698
1AA0
ENDCHAR
STARTCHAR ordfeminine
ENCODING 170
SWIDTH 451 0
DWIDTH 5 0
BBX 5 6 0 3
BITMAP
1900
3780
6180
3B80
0400
6A40
ENDCHAR
STARTCHAR guillemotleft
ENCODING 171
SWIDTH 704 0
DWIDTH 8 0
BBX 8 6 0 0
BITMAP
060A
1E2D
78B4
78B8
1F2E
0605
ENDCHAR
STARTCHAR logicalnot
ENCODING 172
SWIDTH 529 0
DWIDTH 6 0
BBX 6 3 0 2
BITMAP
7FE0
2AE0
0090
ENDCHAR
STARTCHAR uni00AD
ENCODING 173
SWIDTH 418 0
DWIDTH 5 0
BBX 5 2 0 3
BITMAP
7F40
2A40
ENDCHAR
STARTCHAR registered
ENCODING 174
SWIDTH 439 0
DWIDTH 5 0
BBX 5 5 0 4
BITMAP
0500
2A40
5680
6A80
1A00
ENDCHAR
STARTCHAR macron
ENCODING 175
SWIDTH 247 0
DWIDTH 3 0
BBX 3 2 0 6
BITMAP
A8
A8
ENDCHAR
STARTCHAR degree
ENCODING 176
SWIDTH 381 0
DWIDTH 5 0
BBX 4 4 0 4
BITMAP
3E
A7
7F
14
ENDCHAR
STARTCHAR plusminus
ENCODING 177
SWIDTH 516 0
DWIDTH 6 0
BBX 6 7 0 0
BITMAP
0500
0B00
7FE0
6F90
0A00
6A90
7FE0
ENDCHAR
STARTCHAR twosuperior
ENCODING 178
SWIDTH 355 0
DWIDTH 4 0
BBX 4 5 0 4
BITMAP
14
2E
2D
79
69
ENDCHAR
STARTCHAR threesuperior
ENCODING 179
SWIDTH 354 0
DWIDTH 4 0
BBX 4 5 0 4
BITMAP
14
6E
2E
2A
69
ENDCHAR
STARTCHAR acute
ENCODING 180
SWIDTH 225 0
DWIDTH 3 0
BBX 3 2 0 6
BITMAP
74
A0
ENDCHAR
STARTCHAR mu
ENCODING 181
SWIDTH 571 0
DWIDTH 7 0
BBX 7 10 0 -3
BITMAP
1010
7474
7474
7474
7474
7EF4
7FE4
7000
7000
6000
ENDCHAR
STARTCHAR paragraph
ENCODING 182
SWIDTH 808 0
DWIDTH 10 0
BBX 9 9 0 0
BITMAP
015540
1FFFC0
7DE7C0
74E2C0
74E2C0
3DE2C0
1FE2C0
01E2C0
00E2C0
ENDCHAR
STARTCHAR periodcentered
ENCODING 183
SWIDTH 261 0
DWIDTH 3 0
BBX 3 2 0 3
BITMAP
74
24
ENDCHAR
STARTCHAR cedilla
ENCODING 184
SWIDTH 208 0
DWIDTH 3 0
BBX 3 4 0 -3
BITMAP
10
20
74
60
ENDCHAR
STARTCHAR onesuperior
ENCODING 185
SWIDTH 231 0
DWIDTH 3 0
BBX 2 5 0 4
BITMAP
50
70
30
30
20
ENDCHAR
STARTCHAR ordmasculine
ENCODING 186
SWIDTH 432 0
DWIDTH 5 0
BBX 5 6 0 3
BITMAP
1900
3740
6240
3B40
0400
6A40
ENDCHAR
STARTCHAR guillemotright
ENCODING 187
SWIDTH 703 0
DWIDTH 8 0
BBX 8 6 0 0
BITMAP
7460
3D78
0F1E
1F1E
7CB8
2060
ENDCHAR
STARTCHAR onequarter
ENCODING 188
SWIDTH 648 0
DWIDTH 8 0
BBX 8 9 0 0
BITMAP
1010
3460
24D0
2680
2740
0AA8
1CDC
28FD
705C
ENDCHAR
STARTCHAR onehalf
ENCODING 189
SWIDTH 637 0
DWIDTH 8 0
BBX 7 9 0 0
BITMAP
1010
3460
24D0
2680
2740
0ABC
1C6C
28A4
70BC
ENDCHAR
STARTCHAR threequarters
ENCODING 190
SWIDTH 708 0
DWIDTH 9 0
BBX 8 9 0 0
BITMAP
5404
6D28
3D70
6E90
69C0
037A
063A
0D7F
281A
ENDCHAR
STARTCHAR questiondown
ENCODING 191
SWIDTH 602 0
DWIDTH 7 0
BBX 7 9 0 -2
BITMAP
01D0
01D0
0190
06D0
2F80
7900
B400
7FF8
1AA8
ENDCHAR
STARTCHAR Agrave
ENCODING 192
SWIDTH 673 0
DWIDTH 8 0
BBX 8 11 0 0
BITMAP
0A00
0640
0140
1FF4
3D7C
741D
741D
796D
7FFD
796D
741D
ENDCHAR
STARTCHAR Aacute
ENCODING 193
SWIDTH 673 0
DWIDTH 8 0
BBX 8 11 0 0
BITMAP
00A0
0190
0140
1FF4
3D7C
741D
741D
796D
7FFD
796D
741D
ENDCHAR
STARTCHAR Acircumflex
ENCODING 194
SWIDTH 673 0
DWIDTH 8 0
BBX 8 11 0 0
BITMAP
0280
0690
0140
1FF4
3D7C
741D
741D
796D
7FFD
796D
741D
ENDCHAR
STARTCHAR Atilde
ENCODING 195
SWIDTH 673 0
DWIDTH 8 0
BBX 8 12 0 0
BITMAP
0110
0BB0
0990
0140
1FF4
3D7C
741D
741D
796D
7FFD
796D
741D
ENDCHAR
STARTCHAR Adieresis
ENCODING 196
SWIDTH 673 0
DWIDTH 8 0
BBX 8 10 0 0
BITMAP
0960
06A0
1FF4
3D7C
741D
741D
796D
7FFD
796D
741D
ENDCHAR
STARTCHAR Aring
ENCODING 197
SWIDTH 673 0
DWIDTH 8 0
BBX 8 11 0 0
BITMAP
0040
0280
03C0
1FF4
3D7C
741D
741D
796D
7FFD
796D
741D
ENDCHAR
STARTCHAR AE
ENCODING 198
SWIDTH 988 0
DWIDTH 12 0
BBX 12 9 0 0
BITMAP
015555
1FFFFD
3D5E54
741D00
741FF0
796EA0
7FFD00
796EA9
741FFD
ENDCHAR
STARTCHAR Ccedilla
ENCODING 199
SWIDTH 640 0
DWIDTH 8 0
BBX 8 12 0 -3
BITMAP
0150
1FFD
3D58
7400
B000
B000
7800
2EAC
0BF8
0180
02C0
0240
ENDCHAR
STARTCHAR Egrave
ENCODING 200
SWIDTH 578 0
DWIDTH 7 0
BBX 7 11 0 0
BITMAP
0E00
0740
1554
7FF8
7950
7400
7FD0
7A80
7400
7EA4
7FF8
ENDCHAR
STARTCHAR Eacute
ENCODING 201
SWIDTH 578 0
DWIDTH 7 0
BBX 7 11 0 0
BITMAP
01D0
0280
1554
7FF8
7950
7400
7FD0
7A80
7400
7EA4
7FF8
ENDCHAR
STARTCHAR Ecircumflex
ENCODING 202
SWIDTH 578 0
DWIDTH 7 0
BBX 7 11 0 0
BITMAP
0780
0980
1554
7FF8
7950
7400
7FD0
7A80
7400
7EA4
7FF8
ENDCHAR
STARTCHAR Edieresis
ENCODING 203
SWIDTH 578 0
DWIDTH 7 0
BBX 7 11 0 0
BITMAP
0990
0890
1554
7FF8
7950
7400
7FD0
7A80
7400
7EA4
7FF8
ENDCHAR
STARTCHAR Igrave
ENCODING 204
SWIDTH 270 0
DWIDTH 3 0
BBX 4 11 -1 0
BITMAP
74
1C
05
1D
1D
1D
1D
1D
1D
1D
1D
ENDCHAR
STARTCHAR Iacute
ENCODING 205
SWIDTH 270 0
DWIDTH 3 0
BBX 4 11 0 0
BITMAP
1D
28
14
74
74
74
74
74
74
74
74
ENDCHAR
STARTCHAR Icircumflex
ENCODING 206
SWIDTH 270 0
DWIDTH 3 0
BBX 3 11 0 0
BITMAP
78
98
14
74
74
74
74
74
74
74
74
ENDCHAR
STARTCHAR Idieresis
ENCODING 207
SWIDTH 270 0
DWIDTH 3 0
BBX 4 11 0 0
BITMAP
89
89
14
74
74
74
74
74
74
74
74
ENDCHAR
STARTCHAR Eth
ENCODING 208
SWIDTH 672 0
DWIDTH 8 0
BBX 8 9 0 0
BITMAP
1540
3FF4
39BC
381D
FE0E
BD0E
382D
3EF8
3FD0
ENDCHAR
STARTCHAR Ntilde
ENCODING 209
SWIDTH 689 0
DWIDTH 8 0
BBX 8 12 0 0
BITMAP
0110
0BB0
0990
1405
7C1E
7E1E
7F5E
7BDE
75EE
74BE
747E
742E
ENDCHAR
STARTCHAR Ograve
ENCODING 210
SWIDTH 777 0
DWIDTH 9 0
BBX 9 11 0 0
BITMAP
034000
01C000
015000
1FFD00
3D5F40
740380
B002C0
B002C0
780780
2EAF00
0BF800
ENDCHAR
STARTCHAR Oacute
ENCODING 211
SWIDTH 777 0
DWIDTH 9 0
BBX 9 11 0 0
BITMAP
007400
00A000
015000
1FFD00
3D5F40
740380
B002C0
B002C0
780780
2EAF00
0BF800
ENDCHAR
STARTCHAR Ocircumflex
ENCODING 212
SWIDTH 777 0
DWIDTH 9 0
BBX 9 11 0 0
BITMAP
01E000
026000
015000
1FFD00
3D5F40
740380
B002C0
B002C0
780780
2EAF00
0BF800
ENDCHAR
STARTCHAR Otilde
ENCODING 213
SWIDTH 777 0
DWIDTH 9 0
BBX 9 11 0 0
BITMAP
07E800
026000
015000
1FFD00
3D5F40
740380
B002C0
B002C0
780780
2EAF00
0BF800
ENDCHAR
STARTCHAR Odieresis
ENCODING 214
SWIDTH 777 0
DWIDTH 9 0
BBX 9 11 0 0
BITMAP
026400
022400
015000
1FFD00
3D5F40
740380
B002C0
B002C0
780780
2EAF00
0BF800
ENDCHAR
STARTCHAR multiply
ENCODING 215
SWIDTH 479 0
DWIDTH 6 0
BBX 5 5 0 2
BITMAP
1040
7BC0
2F40
3F80
2680
ENDCHAR
STARTCHAR Oslash
ENCODING 216
SWIDTH 777 0
DWIDTH 9 0
BBX 9 9 0 0
BITMAP
015500
1FFF00
3D6F40
747B80
B0E2C0
B2C2C0
7B4780
2FAF00
2FF800
ENDCHAR
STARTCHAR Ugrave
ENCODING 217
SWIDTH 673 0
DWIDTH 8 0
BBX 8 11 0 0
BITMAP
0B00
0280
1004
741D
741D
741D
741D
741D
782D
2EB8
0BE0
ENDCHAR
STARTCHAR Uacute
ENCODING 218
SWIDTH 673 0
DWIDTH 8 0
BBX 8 11 0 0
BITMAP
00B0
01D0
1004
741D
741D
741D
741D
741D
782D
2EB8
0BE0
ENDCHAR
STARTCHAR Ucircumflex
ENCODING 219
SWIDTH 673 0
DWIDTH 8 0
BBX 8 11 0 0
BITMAP
0280
0690
1004
741D
741D
741D
741D
741D
782D
2EB8
0BE0
ENDCHAR
STARTCHAR Udieresis
ENCODING 220
SWIDTH 673 0
DWIDTH 8 0
BBX 8 10 0 0
BITMAP
0960
1964
741D
741D
741D
741D
741D
782D
2EB8
0BE0
ENDCHAR
STARTCHAR Yacute
ENCODING 221
SWIDTH 620 0
DWIDTH 7 0
BBX 7 11 0 0
BITMAP
01D0
0280
5014
B02C
B02C
B02C
7978
2FF0
0780
0380
0380
ENDCHAR
STARTCHAR Thorn
ENCODING 222
SWIDTH 637 0
DWIDTH 8 0
BBX 8 10 0 -1
BITMAP
2400
7A90
7FF4
786D
741D
741D
7ABC
7FE4
7800
1400
ENDCHAR
STARTCHAR germandbls
ENCODING 223
SWIDTH 813 0
DWIDTH 10 0
BBX 10 10 0 0
BITMAP
015000
1FFD00
2D5E00
781E00
B8FD00
7AD000
39FF80
386AE0
38AAE0
38FF80
ENDCHAR
STARTCHAR agrave
ENCODING 224
SWIDTH 607 0
DWIDTH 7 0
BBX 7 9 0 0
BITMAP
1D00
0A00
0540
2FE8
78B8
B038
B038
7AF8
1FD8
ENDCHAR
STARTCHAR aacute
ENCODING 225
SWIDTH 607 0
DWIDTH 7 0
BBX 7 9 0 0
BITMAP
01D0
0340
0540
2FE8
78B8
B038
B038
7AF8
1FD8
ENDCHAR
STARTCHAR acircumflex
ENCODING 226
SWIDTH 607 0
DWIDTH 7 0
BBX 7 9 0 0
BITMAP
0740
0980
0540
2FE8
78B8
B038
B038
7AF8
1FD8
ENDCHAR
STARTCHAR atilde
ENCODING 227
SWIDTH 607 0
DWIDTH 7 0
BBX 7 10 0 0
BITMAP
0400
1FD0
1980
0540
2FE8
78B8
B038
B038
7AF8
1FD8
ENDCHAR
STARTCHAR adieresis
ENCODING 228
SWIDTH 607 0
DWIDTH 7 0
BBX 7 9 0 0
BITMAP
0880
0880
0540
2FE8
78B8
B038
B038
7AF8
1FD8
ENDCHAR
STARTCHAR aring
ENCODING 229
SWIDTH 607 0
DWIDTH 7 0
BBX 7 10 0 0
BITMAP
0100
0A80
0640
0540
2FE8
78B8
B038
B038
7AF8
1FD8
ENDCHAR
STARTCHAR ae
ENCODING 230
SWIDTH 976 0
DWIDTH 12 0
BBX 12 7 0 0
BITMAP
054150
2FEFFD
78BE7C
B03DB4
B03ED0
7AFFED
1FDAF8
ENDCHAR
STARTCHAR ccedilla
ENCODING 231
SWIDTH 521 0
DWIDTH 6 0
BBX 6 10 0 -3
BITMAP
0540
2FE0
78A0
B000
B000
7AE0
1FD0
0600
0740
0A00
ENDCHAR
STARTCHAR egrave
ENCODING 232
SWIDTH 524 0
DWIDTH 6 0
BBX 6 9 0 0
BITMAP
1D00
0A00
0540
2FE0
79E0
B380
BB00
7EE0
1FD0
ENDCHAR
STARTCHAR eacute
ENCODING 233
SWIDTH 524 0
DWIDTH 6 0
BBX 6 9 0 0
BITMAP
01D0
0340
0540
2FE0
79E0
B380
BB00
7EE0
1FD0
ENDCHAR
STARTCHAR ecircumflex
ENCODING 234
SWIDTH 524 0
DWIDTH 6 0
BBX 6 9 0 0
BITMAP
0B40
0940
0540
2FE0
79E0
B380
BB00
7EE0
1FD0
ENDCHAR
STARTCHAR edieresis
ENCODING 235
SWIDTH 524 0
DWIDTH 6 0
BBX 6 9 0 0
BITMAP
1980
1580
0540
2FE0
79E0
B380
BB00
7EE0
1FD0
ENDCHAR
STARTCHAR igrave
ENCODING 236
SWIDTH 235 0
DWIDTH 3 0
BBX 4 9 -1 0
BITMAP
74
28
04
1D
1D
1D
1D
1D
1D
ENDCHAR
STARTCHAR iacute
ENCODING 237
SWIDTH 235 0
DWIDTH 3 0
BBX 4 9 0 0
BITMAP
1D
34
10
74
74
74
74
74
74
ENDCHAR
STARTCHAR icircumflex
ENCODING 238
SWIDTH 235 0
DWIDTH 3 0
BBX 3 9 0 0
BITMAP
74
98
10
74
74
74
74
74
74
ENDCHAR
STARTCHAR idieresis
ENCODING 239
SWIDTH 235 0
DWIDTH 3 0
BBX 4 8 -1 0
BITMAP
62
26
1D
1D
1D
1D
1D
1D
ENDCHAR
STARTCHAR eth
ENCODING 240
SWIDTH 581 0
DWIDTH 7 0
BBX 7 9 0 0
BITMAP
1B94
1FF4
05E0
2FF0
78B4
B038
B038
7AF4
1FD0
ENDCHAR
STARTCHAR ntilde
ENCODING 241
SWIDTH 562 0
DWIDTH 7 0
BBX 7 10 0 0
BITMAP
0440
1FD0
1980
0500
7FD0
79B0
7474
7474
7474
7474
ENDCHAR
STARTCHAR ograve
ENCODING 242
SWIDTH 579 0
DWIDTH 7 0
BBX 7 9 0 0
BITMAP
1D00
0A00
0540
2FE0
78B4
B038
B038
7AF4
1FD0
ENDCHAR
STARTCHAR oacute
ENCODING 243
SWIDTH 579 0
DWIDTH 7 0
BBX 7 9 0 0
BITMAP
01D0
0340
0540
2FE0
78B4
B038
B038
7AF4
1FD0
ENDCHAR
STARTCHAR ocircumflex
ENCODING 244
SWIDTH 579 0
DWIDTH 7 0
BBX 7 9 0 0
BITMAP
0740
0980
0540
2FE0
78B4
B038
B038
7AF4
1FD0
ENDCHAR
STARTCHAR otilde
ENCODING 245
SWIDTH 579 0
DWIDTH 7 0
BBX 7 10 0 0
BITMAP
0440
1FD0
1980
0540
2FE0
78B4
B038
B038
7AF4
1FD0
ENDCHAR
STARTCHAR odieresis
ENCODING 246
SWIDTH 579 0
DWIDTH 7 0
BBX 7 9 0 0
BITMAP
1880
0880
0540
2FE0
78B4
B038
B038
7AF4
1FD0
ENDCHAR
STARTCHAR divide
ENCODING 247
SWIDTH 494 0
DWIDTH 6 0
BBX 6 6 0 1
BITMAP
0A00
0500
BFD0
6A90
0A00
0500
ENDCHAR
STARTCHAR oslash
ENCODING 248
SWIDTH 579 0
DWIDTH 7 0
BBX 7 7 0 0
BITMAP
0554
2FF0
79F4
B3B8
BA38
7EF4
7FD0
ENDCHAR
STARTCHAR ugrave
ENCODING 249
SWIDTH 562 0
DWIDTH 7 0
BBX 6 9 0 0
BITMAP
1D00
0A00
1010
7070
7070
7070
74B0
3AF0
1FA0
ENDCHAR
STARTCHAR uacute
ENCODING 250
SWIDTH 562 0
DWIDTH 7 0
BBX 6 9 0 0
BITMAP
02C0
0340
1010
7070
7070
7070
74B0
3AF0
1FA0
ENDCHAR
STARTCHAR ucircumflex
ENCODING 251
SWIDTH 562 0
DWIDTH 7 0
BBX 6 9 0 0
BITMAP
0B40
0980
1010
7070
7070
7070
74B0
3AF0
1FA0
ENDCHAR
STARTCHAR udieresis
ENCODING 252
SWIDTH 562 0
DWIDTH 7 0
BBX 6 8 0 0
BITMAP
1880
1890
7070
7070
7070
74B0
3AF0
1FA0
ENDCHAR
STARTCHAR yacute
ENCODING 253
SWIDTH 562 0
DWIDTH 7 0
BBX 6 12 0 -3
BITMAP
02C0
0340
1010
7070
7070
7070
74B0
3AF0
1FF0
05E0
0FD0
0500
ENDCHAR
STARTCHAR thorn
ENCODING 254
SWIDTH 608 0
DWIDTH 7 0
BBX 7 12 0 -3
BITMAP
7400
7400
7540
7FF4
7978
742C
742C
7EB8
7BE0
7400
7400
1000
ENDCHAR
STARTCHAR ydieresis
ENCODING 255
SWIDTH 562 0
DWIDTH 7 0
BBX 6 11 0 -3
BITMAP
1880
1890
7070
7070
7070
74B0
3AF0
1FF0
05E0
0FD0
0500
ENDCHAR
STARTCHAR Amacron
ENCODING 256
SWIDTH 673 0
DWIDTH 8 0
BBX 8 10 0 0
BITMAP
0690
07D0
1FF4
3D7C
741D
741D
796D
7FFD
796D
741D
ENDCHAR
STARTCHAR amacron
ENCODING 257
SWIDTH 607 0
DWIDTH 7 0
BBX 7 9 0 0
BITMAP
0A80
0A80
0540
2FE8
78B8
B038
B038
7AF8
1FD8
ENDCHAR
STARTCHAR Abreve
ENCODING 258
SWIDTH 673 0
DWIDTH 8 0
BBX 8 10 0 0
BITMAP
07D0
0280
1FF4
3D7C
741D
741D
796D
7FFD
796D
741D
ENDCHAR
STARTCHAR abreve
ENCODING 259
SWIDTH 607 0
DWIDTH 7 0
BBX 7 9 0 0
BITMAP
0E80
0600
0540
2FE8
78B8
B038
B038
7AF8
1FD8
ENDCHAR
STARTCHAR Aogonek
ENCODING 260
SWIDTH 673 0
DWIDTH 8 0
BBX 8 11 0 -2
BITMAP
0140
1FF4
3D7C
741D
741D
796D
7FFD
796D
741D
0018
001E
ENDCHAR
STARTCHAR aogonek
ENCODING 261
SWIDTH 607 0
DWIDTH 7 0
BBX 8 9 0 -2
BITMAP
0540
2FE8
78B8
B038
B038
7AF8
1FD8
0024
002D
ENDCHAR
STARTCHAR Cacute
ENCODING 262
SWIDTH 640 0
DWIDTH 8 0
BBX 8 11 0 0
BITMAP
0074
00D0
0150
1FFD
3D58
7400
B000
B000
7800
2EAC
0BF8
ENDCHAR
STARTCHAR cacute
ENCODING 263
SWIDTH 521 0
DWIDTH 6 0
BBX 6 9 0 0
BITMAP
02C0
0340
0540
2FE0
78A0
B000
B000
7AE0
1FD0
ENDCHAR
STARTCHAR Ccircumflex
ENCODING 264
SWIDTH 640 0
DWIDTH 8 0
BBX 8 11 0 0
BITMAP
02D0
0260
0150
1FFD
3D58
7400
B000
B000
7800
2EAC
0BF8
ENDCHAR
STARTCHAR ccircumflex
ENCODING 265
SWIDTH 521 0
DWIDTH 6 0
BBX 6 9 0 0
BITMAP
0740
0980
0540
2FE0
78A0
B000
B000
7AE0
1FD0
ENDCHAR
STARTCHAR Cdotaccent
ENCODING 266
SWIDTH 640 0
DWIDTH 8 0
BBX 8 11 0 0
BITMAP
00D0
0040
0150
1FFD
3D58
7400
B000
B000
7800
2EAC
0BF8
ENDCHAR
STARTCHAR cdotaccent
ENCODING 267
SWIDTH 521 0
DWIDTH 6 0
BBX 6 9 0 0
BITMAP
0300
0100
0540
2FE0
78A0
B000
B000
7AE0
1FD0
ENDCHAR
STARTCHAR Ccaron
ENCODING 268
SWIDTH 640 0
DWIDTH 8 0
BBX 8 12 0 0
BITMAP
0110
02F0
0080
0150
1FFD
3D58
7400
B000
B000
7800
2EAC
0BF8
ENDCHAR
STARTCHAR ccaron
ENCODING 269
SWIDTH 521 0
DWIDTH 6 0
BBX 6 10 0 0
BITMAP
0440
0F80
0200
0540
2FE0
78A0
B000
B000
7AE0
1FD0
ENDCHAR
STARTCHAR Dcaron
ENCODING 270
SWIDTH 653 0
DWIDTH 8 0
BBX 8 12 0 0
BITMAP
0040
07D0
0140
1540
7FE0
79B8
742D
741D
741D
743C
7EF4
7F90
ENDCHAR
STARTCHAR dcaron
ENCODING 271
SWIDTH 740 0
DWIDTH 9 0
BBX 9 9 0 0
BITMAP
002840
003AC0
057980
2FF800
78B800
B03800
B03800
7EF800
1FD800
ENDCHAR
STARTCHAR Dcroat
ENCODING 272
SWIDTH 672 0
DWIDTH 8 0
BBX 8 9 0 0
BITMAP
1540
3FF4
39BC
381D
FE0E
BD0E
382D
3EF8
3FD0
ENDCHAR
STARTCHAR dcroat
ENCODING 273
SWIDTH 606 0
DWIDTH 7 0
BBX 8 9 0 0
BITMAP
0068
00BD
0578
2FF8
78B8
B038
B038
7EF8
1FD8
ENDCHAR
STARTCHAR Emacron
ENCODING 274
SWIDTH 578 0
DWIDTH 7 0
BBX 7 10 0 0
BITMAP
0690
1BE4
7FF8
7950
7400
7FD0
7A80
7400
7EA4
7FF8
ENDCHAR
STARTCHAR emacron
ENCODING 275
SWIDTH 524 0
DWIDTH 6 0
BBX 6 9 0 0
BITMAP
0A80
0A80
0540
2FE0
79E0
B380
BB00
7EE0
1FD0
ENDCHAR
STARTCHAR Ebreve
ENCODING 276
SWIDTH 578 0
DWIDTH 7 0
BBX 7 10 0 0
BITMAP
0AC0
1B94
7FF8
7950
7400
7FD0
7A80
7400
7EA4
7FF8
ENDCHAR
STARTCHAR ebreve
ENCODING 277
SWIDTH 524 0
DWIDTH 6 0
BBX 6 9 0 0
BITMAP
0E80
0600
0540
2FE0
79E0
B380
BB00
7EE0
1FD0
ENDCHAR
STARTCHAR Edotaccent
ENCODING 278
SWIDTH 578 0
DWIDTH 7 0
BBX 7 10 0 0
BITMAP
0340
1794
7FF8
7950
7400
7FD0
7A80
7400
7EA4
7FF8
ENDCHAR
STARTCHAR edotaccent
ENCODING 279
SWIDTH 524 0
DWIDTH 6 0
BBX 6 9 0 0
BITMAP
0700
0100
0540
2FE0
79E0
B380
BB00
7EE0
1FD0
ENDCHAR
STARTCHAR Eogonek
ENCODING 280
SWIDTH 578 0
DWIDTH 7 0
BBX 7 11 0 -2
BITMAP
1554
7FF8
7950
7400
7FD0
7A80
7400
7EA4
7FF8
0090
00F4
ENDCHAR
STARTCHAR eogonek
ENCODING 281
SWIDTH 524 0
DWIDTH 6 0
BBX 6 9 0 -2
BITMAP
0540
2FE0
79E0
B380
BB00
7EE0
1FD0
0240
02D0
ENDCHAR
STARTCHAR Ecaron
ENCODING 282
SWIDTH 578 0
DWIDTH 7 0
BBX 7 12 0 0
BITMAP
0440
0BC0
0240
1554
7FF8
7950
7400
7FD0
7A80
7400
7EA4
7FF8
ENDCHAR
STARTCHAR ecaron
ENCODING 283
SWIDTH 524 0
DWIDTH 6 0
BBX 6 10 0 0
BITMAP
0440
0F80
0200
0540
2FE0
79E0
B380
BB00
7EE0
1FD0
ENDCHAR
STARTCHAR Gcircumflex
ENCODING 284
SWIDTH 665 0
DWIDTH 8 0
BBX 8 11 0 0
BITMAP
01D0
0260
0150
1FFD
3E58
7400
B004
B00D
780D
2EAD
0BF8
ENDCHAR
STARTCHAR gcircumflex
ENCODING 285
SWIDTH 607 0
DWIDTH 7 0
BBX 7 12 0 -3
BITMAP
0740
0980
0540
2FE8
78B8
B038
B038
7EF8
1FF8
01B4
07E0
0140
ENDCHAR
STARTCHAR Gbreve
ENCODING 286
SWIDTH 665 0
DWIDTH 8 0
BBX 8 11 0 0
BITMAP
02A0
0090
0150
1FFD
3E58
7400
B004
B00D
780D
2EAD
0BF8
ENDCHAR
STARTCHAR gbreve
ENCODING 287
SWIDTH 607 0
DWIDTH 7 0
BBX 7 12 0 -3
BITMAP
0E80
0600
0540
2FE8
78B8
B038
B038
7EF8
1FF8
01B4
07E0
0140
ENDCHAR
STARTCHAR Gdotaccent
ENCODING 288
SWIDTH 665 0
DWIDTH 8 0
BBX 8 11 0 0
BITMAP
00C0
0040
0150
1FFD
3E58
7400
B004
B00D
780D
2EAD
0BF8
ENDCHAR
STARTCHAR gdotaccent
ENCODING 289
SWIDTH 607 0
DWIDTH 7 0
BBX 7 12 0 -3
BITMAP
0700
0100
0540
2FE8
78B8
B038
B038
7EF8
1FF8
01B4
07E0
0140
ENDCHAR
STARTCHAR Gcommaaccent
ENCODING 290
SWIDTH 665 0
DWIDTH 8 0
BBX 8 12 0 -3
BITMAP
0150
1FFD
3E58
7400
B004
B00D
780D
2EAD
0BF8
0080
01D0
0080
ENDCHAR
STARTCHAR gcommaaccent
ENCODING 291
SWIDTH 607 0
DWIDTH 7 0
BBX 7 13 0 -3
BITMAP
0200
0700
0200
0540
2FE8
78B8
B038
B038
7EF8
1FF8
01B4
07E0
0140
ENDCHAR
STARTCHAR Hcircumflex
ENCODING 292
SWIDTH 689 0
DWIDTH 8 0
BBX 8 11 0 0
BITMAP
02C0
0650
1405
741E
741E
741E
7FFE
7AAE
741E
741E
741E
ENDCHAR
STARTCHAR hcircumflex
ENCODING 293
SWIDTH 562 0
DWIDTH 7 0
BBX 7 9 0 0
BITMAP
66C0
7650
7500
7FD0
79B0
7474
7474
7474
7474
ENDCHAR
STARTCHAR Hbar
ENCODING 294
SWIDTH 689 0
DWIDTH 8 0
BBX 8 9 0 0
BITMAP
1405
795E
BFFF
795E
7FFE
7AAE
741E
741E
741E
ENDCHAR
STARTCHAR hbar
ENCODING 295
SWIDTH 562 0
DWIDTH 7 0
BBX 7 9 0 0
BITMAP
A400
F800
7500
7FD0
79B0
7474
7474
7474
7474
ENDCHAR
STARTCHAR Itilde
ENCODING 296
SWIDTH 270 0
DWIDTH 3 0
BBX 5 12 -1 0
BITMAP
1000
7E80
6600
0500
1D00
1D00
1D00
1D00
1D00
1D00
1D00
1D00
ENDCHAR
STARTCHAR itilde
ENCODING 297
SWIDTH 235 0
DWIDTH 3 0
BBX 5 9 -1 0
BITMAP
1100
7F40
6A00
1D00
1D00
1D00
1D00
1D00
1D00
ENDCHAR
STARTCHAR Imacron
ENCODING 298
SWIDTH 270 0
DWIDTH 3 0
BBX 3 10 0 0
BITMAP
A8
B8
74
74
74
74
74
74
74
74
ENDCHAR
STARTCHAR imacron
ENCODING 299
SWIDTH 235 0
DWIDTH 3 0
BBX 3 8 0 0
BITMAP
A8
B8
74
74
74
74
74
74
ENDCHAR
STARTCHAR Ibreve
ENCODING 300
SWIDTH 270 0
DWIDTH 3 0
BBX 3 10 0 0
BITMAP
AC
74
74
74
74
74
74
74
74
74
ENDCHAR
STARTCHAR ibreve
ENCODING 301
SWIDTH 235 0
DWIDTH 3 0
BBX 3 8 0 0
BITMAP
E8
64
74
74
74
74
74
74
ENDCHAR
STARTCHAR Iogonek
ENCODING 302
SWIDTH 270 0
DWIDTH 3 0
BBX 3 11 0 -2
BITMAP
14
74
74
74
74
74
74
74
74
60
78
ENDCHAR
STARTCHAR iogonek
ENCODING 303
SWIDTH 235 0
DWIDTH 3 0
BBX 3 11 0 -2
BITMAP
74
74
10
74
74
74
74
74
74
60
B8
ENDCHAR
STARTCHAR Idotaccent
ENCODING 304
SWIDTH 270 0
DWIDTH 3 0
BBX 3 10 0 0
BITMAP
34
34
74
74
74
74
74
74
74
74
ENDCHAR
STARTCHAR dotlessi
ENCODING 305
SWIDTH 235 0
DWIDTH 3 0
BBX 3 7 0 0
BITMAP
10
74
74
74
74
74
74
ENDCHAR
STARTCHAR IJ
ENCODING 306
SWIDTH 687 0
DWIDTH 8 0
BBX 8 9 0 0
BITMAP
1405
740E
740E
740E
740E
740E
741D
76BC
76E0
ENDCHAR
STARTCHAR ij
ENCODING 307
SWIDTH 474 0
DWIDTH 6 0
BBX 6 12 0 -3
BITMAP
76C0
76D0
1040
76C0
76C0
76C0
76C0
76C0
76C0
1780
3F00
1400
ENDCHAR
STARTCHAR Jcircumflex
ENCODING 308
SWIDTH 416 0
DWIDTH 5 0
BBX 5 11 0 0
BITMAP
0740
0980
0100
0740
0740
0740
0740
0740
0B40
AE00
B800
ENDCHAR
STARTCHAR jcircumflex
ENCODING 309
SWIDTH 237 0
DWIDTH 3 0
BBX 5 12 -2 -3
BITMAP
0740
0980
0100
0740
0740
0740
0740
0740
0740
1F00
BD00
5000
ENDCHAR
STARTCHAR Kcommaaccent
ENCODING 310
SWIDTH 625 0
DWIDTH 8 0
BBX 8 12 0 -3
BITMAP
1414
7438
74B0
76D0
7BC0
7FE0
7CB0
7878
742D
0100
0380
0240
ENDCHAR
STARTCHAR kcommaaccent
ENCODING 311
SWIDTH 539 0
DWIDTH 6 0
BBX 7 12 0 -3
BITMAP
6000
7400
7410
74E0
76C0
7B80
7FC0
79E0
74B4
0100
0700
0200
ENDCHAR
STARTCHAR kgreenlandic
ENCODING 312
SWIDTH 539 0
DWIDTH 6 0
BBX 7 7 0 0
BITMAP
1010
74E0
76C0
7B80
7FC0
79E0
74B4
ENDCHAR
STARTCHAR Lacute
ENCODING 313
SWIDTH 562 0
DWIDTH 7 0
BBX 7 10 0 0
BITMAP
02C0
1740
7400
7400
7400
7400
7400
7400
7EA4
7FF8
ENDCHAR
STARTCHAR lacute
ENCODING 314
SWIDTH 235 0
DWIDTH 3 0
BBX 4 11 0 0
BITMAP
1E
28
60
74
74
74
74
74
74
74
74
ENDCHAR
STARTCHAR Lcommaaccent
ENCODING 315
SWIDTH 562 0
DWIDTH 7 0
BBX 7 12 0 -3
BITMAP
1400
7400
7400
7400
7400
7400
7400
7EA4
7FF8
0100
0700
0200
ENDCHAR
STARTCHAR lcommaaccent
ENCODING 316
SWIDTH 235 0
DWIDTH 3 0
BBX 3 12 0 -3
BITMAP
60
74
74
74
74
74
74
74
74
10
74
20
ENDCHAR
STARTCHAR Lcaron
ENCODING 317
SWIDTH 562 0
DWIDTH 7 0
BBX 7 9 0 0
BITMAP
1540
7680
7540
7400
7400
7400
7400
7EA4
7FF8
ENDCHAR
STARTCHAR lcaron
ENCODING 318
SWIDTH 369 0
DWIDTH 4 0
BBX 5 9 0 0
BITMAP
6500
7740
7600
7400
7400
7400
7400
7400
7400
ENDCHAR
STARTCHAR Ldot
ENCODING 319
SWIDTH 745 0
DWIDTH 9 0
BBX 9 9 0 0
BITMAP
140000
740000
740000
740000
740B40
740600
740000
7EA400
7FF800
ENDCHAR
STARTCHAR ldotaccent
ENCODING 320
SWIDTH 463 0
DWIDTH 6 0
BBX 5 9 0 0
BITMAP
6000
7400
7400
7400
77C0
7680
7400
7400
7400
ENDCHAR
STARTCHAR Lslash
ENCODING 321
SWIDTH 585 0
DWIDTH 7 0
BBX 7 9 0 0
BITMAP
1400
3800
3800
3E00
7E00
F800
7800
3EA8
3FFC
ENDCHAR
STARTCHAR lslash
ENCODING 322
SWIDTH 319 0
DWIDTH 4 0
BBX 4 9 0 0
BITMAP
28
38
38
3E
7E
F8
78
38
38
ENDCHAR
STARTCHAR Nacute
ENCODING 323
SWIDTH 689 0
DWIDTH 8 0
BBX 8 11 0 0
BITMAP
00B0
01D0
1405
7C1E
7E1E
7F5E
7BDE
75EE
74BE
747E
742E
ENDCHAR
STARTCHAR nacute
ENCODING 324
SWIDTH 562 0
DWIDTH 7 0
BBX 7 9 0 0
BITMAP
01D0
0280
0500
7FD0
79B0
7474
7474
7474
7474
ENDCHAR
STARTCHAR Ncommaaccent
ENCODING 325
SWIDTH 689 0
DWIDTH 8 0
BBX 8 12 0 -3
BITMAP
1405
7C1E
7E1E
7F5E
7BDE
75EE
74BE
747E
742E
0040
02C0
0080
ENDCHAR
STARTCHAR ncommaaccent
ENCODING 326
SWIDTH 562 0
DWIDTH 7 0
BBX 7 10 0 -3
BITMAP
0500
7FD0
79B0
7474
7474
7474
7474
0100
0700
0200
ENDCHAR
STARTCHAR Ncaron
ENCODING 327
SWIDTH 689 0
DWIDTH 8 0
BBX 8 12 0 0
BITMAP
0100
07D0
0180
1405
7C1E
7E1E
7F5E
7BDE
75EE
74BE
747E
742E
ENDCHAR
STARTCHAR ncaron
ENCODING 328
SWIDTH 562 0
DWIDTH 7 0
BBX 7 10 0 0
BITMAP
0400
0F80
0200
0500
7FD0
79B0
7474
7474
7474
7474
ENDCHAR
STARTCHAR napostrophe
ENCODING 329
SWIDTH 694 0
DWIDTH 8 0
BBX 8 9 0 0
BITMAP
4000
E000
5050
0BFC
0B5E
0A0A
0A0A
0A0A
0A0A
ENDCHAR
STARTCHAR Eng
ENCODING 330
SWIDTH 689 0
DWIDTH 8 0
BBX 8 12 0 -3
BITMAP
1405
7C1E
7E1E
7F5E
7BDE
75EE
74BE
747E
742D
017C
02F4
0140
ENDCHAR
STARTCHAR eng
ENCODING 331
SWIDTH 562 0
DWIDTH 7 0
BBX 7 10 0 -3
BITMAP
0500
7FD0
79B0
7474
7474
7474
7474
05F0
0BD0
0500
ENDCHAR
STARTCHAR Omacron
ENCODING 332
SWIDTH 777 0
DWIDTH 9 0
BBX 9 11 0 0
BITMAP
02A000
01A000
015000
1FFD00
3D5F40
740380
B002C0
B002C0
780780
2EAF00
0BF800
ENDCHAR
STARTCHAR omacron
ENCODING 333
SWIDTH 579 0
DWIDTH 7 0
BBX 7 9 0 0
BITMAP
0A80
0A80
0540
2FE0
78B4
B038
B038
7AF4
1FD0
ENDCHAR
STARTCHAR Obreve
ENCODING 334
SWIDTH 777 0
DWIDTH 9 0
BBX 9 11 0 0
BITMAP
02B000
005000
015000
1FFD00
3D5F40
740380
B002C0
B002C0
780780
2EAF00
0BF800
ENDCHAR
STARTCHAR obreve
ENCODING 335
SWIDTH 579 0
DWIDTH 7 0
BBX 7 9 0 0
BITMAP
0A80
0240
0540
2FE0
78B4
B038
B038
7AF4
1FD0
ENDCHAR
STARTCHAR Ohungarumlaut
ENCODING 336
SWIDTH 777 0
DWIDTH 9 0
BBX 9 12 0 0
BITMAP
008400
02ED00
012400
015000
1FFD00
3D5F40
740380
B002C0
B002C0
780780
2EAF00
0BF800
ENDCHAR
STARTCHAR ohungarumlaut
ENCODING 337
SWIDTH 579 0
DWIDTH 7 0
BBX 7 9 0 0
BITMAP
0610
0EB0
0AD0
2FE0
78B4
B038
B038
7AF4
1FD0
ENDCHAR
STARTCHAR OE
ENCODING 338
SWIDTH 1125 0
DWIDTH 14 0
BBX 13 9 0 0
BITMAP
01515540
1FFFFFC0
3D5FD540
7403C000
B002FE00
B002EA00
7807C000
2EAFEA80
0BFAFFC0
ENDCHAR
STARTCHAR oe
ENCODING 339
SWIDTH 924 0
DWIDTH 11 0
BBX 11 7 0 0
BITMAP
054150
2FEFF8
78BDB4
B039E0
B03F80
7AFFB8
1FDBF4
ENDCHAR
STARTCHAR Racute
ENCODING 340
SWIDTH 651 0
DWIDTH 8 0
BBX 8 11 0 0
BITMAP
00E0
0280
1540
7FF4
797C
741D
741D
797C
7FF4
79B4
7438
ENDCHAR
STARTCHAR racute
ENCODING 341
SWIDTH 414 0
DWIDTH 5 0
BBX 5 9 0 0
BITMAP
0740
0A00
0140
6F80
7940
7400
7400
7400
7400
ENDCHAR
STARTCHAR Rcommaaccent
ENCODING 342
SWIDTH 651 0
DWIDTH 8 0
BBX 8 12 0 -3
BITMAP
1540
7FF4
797C
741D
741D
797C
7FF4
79B4
7438
0140
0280
0140
ENDCHAR
STARTCHAR rcommaaccent
ENCODING 343
SWIDTH 414 0
DWIDTH 5 0
BBX 5 10 0 -3
BITMAP
0140
6F80
7940
7400
7400
7400
7400
1000
7000
2000
ENDCHAR
STARTCHAR Rcaron
ENCODING 344
SWIDTH 651 0
DWIDTH 8 0
BBX 8 12 0 0
BITMAP
0040
07D0
0140
1540
7FF4
797C
741D
741D
797C
7FF4
79B4
7438
ENDCHAR
STARTCHAR rcaron
ENCODING 345
SWIDTH 414 0
DWIDTH 5 0
BBX 5 10 0 0
BITMAP
1100
3E00
0800
0140
6F80
7940
7400
7400
7400
7400
ENDCHAR
STARTCHAR Sacute
ENCODING 346
SWIDTH 610 0
DWIDTH 7 0
BBX 7 11 0 0
BITMAP
00E0
0280
0554
3FF8
B554
B400
7FE0
1AB8
002C
6AB8
7FE0
ENDCHAR
STARTCHAR sacute
ENCODING 347
SWIDTH 523 0
DWIDTH 6 0
BBX 6 9 0 0
BITMAP
02C0
0340
0540
7FE0
B550
7F90
1AF0
6AF0
BFD0
ENDCHAR
STARTCHAR Scircumflex
ENCODING 348
SWIDTH 610 0
DWIDTH 7 0
BBX 7 11 0 0
BITMAP
0780
0980
0554
3FF8
B554
B400
7FE0
1AB8
002C
6AB8
7FE0
ENDCHAR
STARTCHAR scircumflex
ENCODING 349
SWIDTH 523 0
DWIDTH 6 0
BBX 6 9 0 0
BITMAP
0B00
1940
0540
7FE0
B550
7F90
1AF0
6AF0
BFD0
ENDCHAR
STARTCHAR Scedilla
ENCODING 350
SWIDTH 610 0
DWIDTH 7 0
BBX 7 12 0 -3
BITMAP
0554
3FF8
B554
B400
7FE0
1AB8
002C
6AB8
7FE0
0240
06C0
0640
ENDCHAR
STARTCHAR scedilla
ENCODING 351
SWIDTH 523 0
DWIDTH 6 0
BBX 6 10 0 -3
BITMAP
0540
7FE0
B550
7F90
1AF0
6AF0
BFD0
0600
0740
0A00
ENDCHAR
STARTCHAR Scaron
ENCODING 352
SWIDTH 610 0
DWIDTH 7 0
BBX 7 12 0 0
BITMAP
0440
0BC0
0200
0554
3FF8
B554
B400
7FE0
1AB8
002C
6AB8
7FE0
ENDCHAR
STARTCHAR scaron
ENCODING 353
SWIDTH 523 0
DWIDTH 6 0
BBX 6 10 0 0
BITMAP
0400
0F80
0600
0540
7FE0
B550
7F90
1AF0
6AF0
BFD0
ENDCHAR
STARTCHAR Tcommaaccent
ENCODING 354
SWIDTH 578 0
DWIDTH 7 0
BBX 7 12 0 -3
BITMAP
5554
FFF8
5B94
0740
0740
0740
0740
0740
0740
0100
0740
0200
ENDCHAR
STARTCHAR tcommaaccent
ENCODING 355
SWIDTH 437 0
DWIDTH 5 0
BBX 5 12 0 -3
BITMAP
2400
3800
7940
BFC0
7940
3800
3800
2E80
0BC0
0400
0D00
0800
ENDCHAR
STARTCHAR Tcaron
ENCODING 356
SWIDTH 578 0
DWIDTH 7 0
BBX 7 12 0 0
BITMAP
0440
0F80
0200
5554
FFF8
5B94
0740
0740
0740
0740
0740
0740
ENDCHAR
STARTCHAR tcaron
ENCODING 357
SWIDTH 570 0
DWIDTH 7 0
BBX 7 9 0 0
BITMAP
2414
3828
7958
BFC0
7940
3800
3800
2E80
0BC0
ENDCHAR
STARTCHAR Tbar
ENCODING 358
SWIDTH 578 0
DWIDTH 7 0
BBX 7 9 0 0
BITMAP
5554
FFF8
5B94
0740
0B80
1FD0
0B40
0740
0740
ENDCHAR
STARTCHAR tbar
ENCODING 359
SWIDTH 437 0
DWIDTH 5 0
BBX 5 9 0 0
BITMAP
2400
3800
7940
BFC0
7940
BE00
7D00
2E80
0BC0
ENDCHAR
STARTCHAR Utilde
ENCODING 360
SWIDTH 673 0
DWIDTH 8 0
BBX 8 12 0 0
BITMAP
0110
0BB0
0990
1004
741D
741D
741D
741D
741D
782D
2EB8
0BE0
ENDCHAR
STARTCHAR utilde
ENCODING 361
SWIDTH 562 0
DWIDTH 7 0
BBX 6 9 0 0
BITMAP
0440
1ED0
2990
7070
7070
7070
74B0
3AF0
1FA0
ENDCHAR
STARTCHAR Umacron
ENCODING 362
SWIDTH 673 0
DWIDTH 8 0
BBX 8 10 0 0
BITMAP
0690
1694
741D
741D
741D
741D
741D
782D
2EB8
0BE0
ENDCHAR
STARTCHAR umacron
ENCODING 363
SWIDTH 562 0
DWIDTH 7 0
BBX 6 8 0 0
BITMAP
0A80
1A90
7070
7070
7070
74B0
3AF0
1FA0
ENDCHAR
STARTCHAR Ubreve
ENCODING 364
SWIDTH 673 0
DWIDTH 8 0
BBX 8 10 0 0
BITMAP
0790
1144
741D
741D
741D
741D
741D
782D
2EB8
0BE0
ENDCHAR
STARTCHAR ubreve
ENCODING 365
SWIDTH 562 0
DWIDTH 7 0
BBX 6 8 0 0
BITMAP
0E80
1650
7070
7070
7070
74B0
3AF0
1FA0
ENDCHAR
STARTCHAR Uring
ENCODING 366
SWIDTH 673 0
DWIDTH 8 0
BBX 8 12 0 0
BITMAP
0140
0280
0280
1004
741D
741D
741D
741D
741D
782D
2EB8
0BE0
ENDCHAR
STARTCHAR uring
ENCODING 367
SWIDTH 562 0
DWIDTH 7 0
BBX 6 9 0 0
BITMAP
0100
0A40
1650
7070
7070
7070
74B0
3AF0
1FA0
ENDCHAR
STARTCHAR Uhungarumlaut
ENCODING 368
SWIDTH 673 0
DWIDTH 8 0
BBX 8 12 0 0
BITMAP
0250
07B8
0160
1004
741D
741D
741D
741D
741D
782D
2EB8
0BE0
ENDCHAR
STARTCHAR uhungarumlaut
ENCODING 369
SWIDTH 562 0
DWIDTH 7 0
BBX 6 9 0 0
BITMAP
0610
0EB0
1490
7070
7070
7070
74B0
3AF0
1FA0
ENDCHAR
STARTCHAR Uogonek
ENCODING 370
SWIDTH 673 0
DWIDTH 8 0
BBX 8 11 0 -2
BITMAP
1004
741D
741D
741D
741D
741D
382D
2EB8
0BE0
0300
03C0
ENDCHAR
STARTCHAR uogonek
ENCODING 371
SWIDTH 562 0
DWIDTH 7 0
BBX 7 9 0 -2
BITMAP
1010
7070
7070
7070
74B0
3AF0
1FA0
0060
0078
ENDCHAR
STARTCHAR Wcircumflex
ENCODING 372
SWIDTH 819 0
DWIDTH 10 0
BBX 9 11 0 0
BITMAP
00E000
01A400
105140
74E2C0
74E2C0
74E2C0
74E2C0
74E2C0
74E2C0
3EFBC0
1FAF40
ENDCHAR
STARTCHAR wcircumflex
ENCODING 373
SWIDTH 756 0
DWIDTH 9 0
BBX 9 9 0 0
BITMAP
01D000
026000
104100
71D380
71D380
71D380
71D380
7AEB40
2FBE00
ENDCHAR
STARTCHAR Ycircumflex
ENCODING 374
SWIDTH 620 0
DWIDTH 7 0
BBX 7 11 0 0
BITMAP
0780
0980
5014
B02C
B02C
B02C
7978
2FF0
0780
0380
0380
ENDCHAR
STARTCHAR ycircumflex
ENCODING 375
SWIDTH 562 0
DWIDTH 7 0
BBX 6 12 0 -3
BITMAP
0B40
0980
1010
7070
7070
7070
74B0
3AF0
1FF0
05E0
0FD0
0500
ENDCHAR
STARTCHAR Ydieresis
ENCODING 376
SWIDTH 620 0
DWIDTH 7 0
BBX 7 11 0 0
BITMAP
0990
0850
5014
B02C
B02C
B02C
7978
2FF0
0780
0380
0380
ENDCHAR
STARTCHAR Zacute
ENCODING 377
SWIDTH 586 0
DWIDTH 7 0
BBX 7 11 0 0
BITMAP
01D0
0280
5554
BFF4
56E0
02D0
0780
0F40
1E00
3EA8
7FF8
ENDCHAR
STARTCHAR zacute
ENCODING 378
SWIDTH 481 0
DWIDTH 6 0
BBX 6 9 0 0
BITMAP
0280
0640
5540
BFC0
5B80
0B00
1D00
3E90
7FE0
ENDCHAR
STARTCHAR Zdotaccent
ENCODING 379
SWIDTH 586 0
DWIDTH 7 0
BBX 7 10 0 0
BITMAP
0300
5754
BFF4
56E0
02D0
0780
0F40
1E00
3EA8
7FF8
ENDCHAR
STARTCHAR zdotaccent
ENCODING 380
SWIDTH 481 0
DWIDTH 6 0
BBX 6 8 0 0
BITMAP
0900
5A40
BFC0
5B80
0B00
1D00
3E90
7FE0
ENDCHAR
STARTCHAR Zcaron
ENCODING 381
SWIDTH 586 0
DWIDTH 7 0
BBX 7 12 0 0
BITMAP
0440
0BC0
0200
5554
BFF4
56E0
02D0
0780
0F40
1E00
3EA8
7FF8
ENDCHAR
STARTCHAR zcaron
ENCODING 382
SWIDTH 481 0
DWIDTH 6 0
BBX 6 10 0 0
BITMAP
0100
1F40
0500
5540
BFC0
5B80
0B00
1D00
3E90
7FE0
ENDCHAR
STARTCHAR AEacute
ENCODING 508
SWIDTH 988 0
DWIDTH 12 0
BBX 12 11 0 0
BITMAP
000740
000A00
015555
1FFFFD
3D5E54
741D00
741FF0
796EA0
7FFD00
796EA9
741FFD
ENDCHAR
STARTCHAR aeacute
ENCODING 509
SWIDTH 976 0
DWIDTH 12 0
BBX 12 9 0 0
BITMAP
000B00
000D00
054150
2FEFFD
78BE7C
B03DB4
B03ED0
7AFFED
1FDAF8
ENDCHAR
STARTCHAR Oslashacute
ENCODING 510
SWIDTH 777 0
DWIDTH 9 0
BBX 9 11 0 0
BITMAP
007400
00A000
015500
1FFF00
3D6F40
747B80
B0E2C0
B2C2C0
7B4780
2FAF00
2FF800
ENDCHAR
STARTCHAR oslashacute
ENCODING 511
SWIDTH 579 0
DWIDTH 7 0
BBX 7 9 0 0
BITMAP
01D0
0280
0554
2FF0
79F4
B3B8
BA38
7EF4
7FD0
ENDCHAR
STARTCHAR dotlessj
ENCODING 567
SWIDTH 237 0
DWIDTH 3 0
BBX 5 10 -2 -3
BITMAP
0100
0740
0740
0740
0740
0740
0740
1F00
BD00
5000
ENDCHAR
STARTCHAR circumflex
ENCODING 710
SWIDTH 267 0
DWIDTH 3 0
BBX 3 2 0 6
BITMAP
74
98
ENDCHAR
STARTCHAR caron
ENCODING 711
SWIDTH 267 0
DWIDTH 3 0
BBX 3 3 0 6
BITMAP
44
BC
20
ENDCHAR
STARTCHAR breve
ENCODING 728
SWIDTH 220 0
DWIDTH 3 0
BBX 3 2 0 6
BITMAP
E8
60
ENDCHAR
STARTCHAR dotaccent
ENCODING 729
SWIDTH 125 0
DWIDTH 2 0
BBX 2 2 0 6
BITMAP
90
40
ENDCHAR
STARTCHAR ring
ENCODING 730
SWIDTH 192 0
DWIDTH 2 0
BBX 3 3 0 6
BITMAP
50
A4
A0
ENDCHAR
STARTCHAR ogonek
ENCODING 731
SWIDTH 212 0
DWIDTH 3 0
BBX 3 3 0 -2
BITMAP
10
90
B4
ENDCHAR
STARTCHAR tilde
ENCODING 732
SWIDTH 321 0
DWIDTH 4 0
BBX 4 3 0 6
BITMAP
11
FA
99
ENDCHAR
STARTCHAR hungarumlaut
ENCODING 733
SWIDTH 384 0
DWIDTH 5 0
BBX 5 3 0 6
BITMAP
2100
BB40
4900
ENDCHAR
STARTCHAR uni0312
ENCODING 786
SWIDTH 192 0
DWIDTH 2 0
BBX 2 3 0 6
BITMAP
50
A0
50
ENDCHAR
STARTCHAR uni0315
ENCODING 789
SWIDTH 132 0
DWIDTH 2 0
BBX 2 3 0 6
BITMAP
40
E0
50
ENDCHAR
STARTCHAR uni0326
ENCODING 806
SWIDTH 193 0
DWIDTH 2 0
BBX 2 3 0 -3
BITMAP
10
B0
20
ENDCHAR
STARTCHAR pi
ENCODING 960
SWIDTH 555 0
DWIDTH 7 0
BBX 7 7 0 0
BITMAP
5550
BFF4
7DE0
28D0
28D0
28D0
28D0
ENDCHAR
STARTCHAR Wgrave
ENCODING 7808
SWIDTH 819 0
DWIDTH 10 0
BBX 9 11 0 0
BITMAP
038000
01C000
105140
74E2C0
74E2C0
74E2C0
74E2C0
74E2C0
74E2C0
3EFBC0
1FAF40
ENDCHAR
STARTCHAR wgrave
ENCODING 7809
SWIDTH 756 0
DWIDTH 9 0
BBX 9 9 0 0
BITMAP
0B4000
028000
104100
71D380
71D380
71D380
71D380
7AEB40
2FBE00
ENDCHAR
STARTCHAR Wacute
ENCODING 7810
SWIDTH 819 0
DWIDTH 10 0
BBX 9 11 0 0
BITMAP
002800
006400
105140
74E2C0
74E2C0
74E2C0
74E2C0
74E2C0
74E2C0
3EFBC0
1FAF40
ENDCHAR
STARTCHAR wacute
ENCODING 7811
SWIDTH 756 0
DWIDTH 9 0
BBX 9 9 0 0
BITMAP
003800
00A000
104100
71D380
71D380
71D380
71D380
7AEB40
2FBE00
ENDCHAR
STARTCHAR Wdieresis
ENCODING 7812
SWIDTH 819 0
DWIDTH 10 0
BBX 9 11 0 0
BITMAP
025400
015400
105140
74E2C0
74E2C0
74E2C0
74E2C0
74E2C0
74E2C0
3EFBC0
1FAF40
ENDCHAR
STARTCHAR wdieresis
ENCODING 7813
SWIDTH 756 0
DWIDTH 9 0
BBX 9 8 0 0
BITMAP
022400
126100
71D380
71D380
71D380
71D380
7AEB40
2FBE00
ENDCHAR
STARTCHAR Ygrave
ENCODING 7922
SWIDTH 620 0
DWIDTH 7 0
BBX 7 11 0 0
BITMAP
1D00
0A00
5014
B02C
B02C
B02C
7978
2FF0
0780
0380
0380
ENDCHAR
STARTCHAR ygrave
ENCODING 7923
SWIDTH 562 0
DWIDTH 7 0
BBX 6 12 0 -3
BITMAP
3800
1D00
1010
7070
7070
7070
74B0
3AF0
1FF0
05E0
0FD0
0500
ENDCHAR
STARTCHAR endash
ENCODING 8211
SWIDTH 418 0
DWIDTH 5 0
BBX 5 2 0 3
BITMAP
7F40
2A40
ENDCHAR
STARTCHAR emdash
ENCODING 8212
SWIDTH 719 0
DWIDTH 9 0
BBX 8 2 0 3
BITMAP
7FFF
2AAA
ENDCHAR
STARTCHAR quoteleft
ENCODING 8216
SWIDTH 246 0
DWIDTH 3 0
BBX 3 4 0 5
BITMAP
10
70
74
20
ENDCHAR
STARTCHAR quoteright
ENCODING 8217
SWIDTH 245 0
DWIDTH 3 0
BBX 3 4 0 5
BITMAP
10
74
34
10
ENDCHAR
STARTCHAR quotesinglbase
ENCODING 8218
SWIDTH 264 0
DWIDTH 3 0
BBX 3 4 0 -2
BITMAP
20
78
24
10
ENDCHAR
STARTCHAR quotedblleft
ENCODING 8220
SWIDTH 445 0
DWIDTH 5 0
BBX 5 4 0 5
BITMAP
1000
7240
7780
2240
ENDCHAR
STARTCHAR quotedblright
ENCODING 8221
SWIDTH 444 0
DWIDTH 5 0
BBX 5 4 0 5
BITMAP
1100
7780
3680
1140
ENDCHAR
STARTCHAR quotedblbase
ENCODING 8222
SWIDTH 463 0
DWIDTH 6 0
BBX 5 4 0 -2
BITMAP
2140
7BC0
2580
1000
ENDCHAR
STARTCHAR dagger
ENCODING 8224
SWIDTH 434 0
DWIDTH 5 0
BBX 5 12 0 -2
BITMAP
0900
1D00
6E40
BF80
1E00
1D00
1D00
1D00
1D00
1D00
1D00
0400
ENDCHAR
STARTCHAR daggerdbl
ENCODING 8225
SWIDTH 452 0
DWIDTH 5 0
BBX 5 12 0 -2
BITMAP
0900
0E00
6E40
BFC0
1E00
0E00
0E00
6F80
7FC0
0E00
0E00
0400
ENDCHAR
STARTCHAR bullet
ENCODING 8226
SWIDTH 354 0
DWIDTH 4 0
BBX 3 3 1 3
BITMAP
50
F4
A0
ENDCHAR
STARTCHAR ellipsis
ENCODING 8230
SWIDTH 789 0
DWIDTH 9 0
BBX 9 3 0 -1
BITMAP
209140
79E380
104140
ENDCHAR
STARTCHAR perthousand
ENCODING 8240
SWIDTH 998 0
DWIDTH 12 0
BBX 12 9 0 0
BITMAP
140400
7A2800
A67000
7AA000
29C000
03BD7C
07A699
0D6699
283D7C
ENDCHAR
STARTCHAR guilsinglleft
ENCODING 8249
SWIDTH 403 0
DWIDTH 5 0
BBX 4 6 0 0
BITMAP
06
1E
78
78
1F
06
ENDCHAR
STARTCHAR guilsinglright
ENCODING 8250
SWIDTH 402 0
DWIDTH 5 0
BBX 4 6 0 0
BITMAP
74
3D
0F
1F
7C
20
ENDCHAR
STARTCHAR fraction
ENCODING 8260
SWIDTH 477 0
DWIDTH 6 0
BBX 6 9 0 0
BITMAP
0050
00D0
0280
0340
0A00
1C00
2800
7000
9000
ENDCHAR
STARTCHAR Euro
ENCODING 8364
SWIDTH 806 0
DWIDTH 10 0
BBX 9 9 0 0
BITMAP
001500
01FF80
07D580
3FF000
2F9000
7FD000
6BD000
03EA80
00BF80
ENDCHAR
STARTCHAR trademark
ENCODING 8482
SWIDTH 606 0
DWIDTH 7 0
BBX 6 4 1 5
BITMAP
5140
9A90
5960
4550
ENDCHAR
STARTCHAR partialdiff
ENCODING 8706
SWIDTH 609 0
DWIDTH 7 0
BBX 7 9 0 0
BITMAP
03C0
01D0
05F0
2FF4
7878
B038
7438
3EB4
1FD0
ENDCHAR
STARTCHAR product
ENCODING 8719
SWIDTH 632 0
DWIDTH 8 0
BBX 8 9 0 0
BITMAP
5554
BFFD
2DB4
1DB0
1DB0
1DB0
1DB0
1DB0
1DB0
ENDCHAR
STARTCHAR minus
ENCODING 8722
SWIDTH 543 0
DWIDTH 7 0
BBX 6 2 0 3
BITMAP
7FE0
2A90
ENDCHAR
STARTCHAR infinity
ENCODING 8734
SWIDTH 771 0
DWIDTH 9 0
BBX 9 6 0 1
BITMAP
1A1900
3FFF40
75E380
75E380
3FFF40
1A1900
ENDCHAR
STARTCHAR approxequal
ENCODING 8776
SWIDTH 476 0
DWIDTH 6 0
BBX 5 6 0 1
BITMAP
1480
7FC0
2140
3DC0
7B80
1000
ENDCHAR
STARTCHAR notequal
ENCODING 8800
SWIDTH 512 0
DWIDTH 6 0
BBX 6 8 0 0
BITMAP
0180
1680
7FE0
1B50
7FD0
7E90
2800
1400
ENDCHAR
STARTCHAR fi
ENCODING 64257
SWIDTH 650 0
DWIDTH 8 0
BBX 8 10 0 0
BITMAP
0140
1FED
2D5D
7954
BFFD
796D
381D
381D
381D
381D
ENDCHAR
STARTCHAR fl
ENCODING 64258
SWIDTH 631 0
DWIDTH 8 0
BBX 7 10 0 0
BITMAP
0154
1FFC
2D6C
796C
BFAC
796C
382C
382C
382C
382C
ENDCHAR
STARTCHAR .notdef
ENCODING -1
SWIDTH 279 0
DWIDTH 3 0
BBX 1 1 0 0
BITMAP
00
ENDCHAR
STARTCHAR .null
ENCODING -1
SWIDTH 0 0
DWIDTH 0 0
BBX 1 1 0 0
BITMAP
00
ENDCHAR
STARTCHAR nonmarkingreturn
ENCODING -1
SWIDTH 279 0
DWIDTH 3 0
BBX 1 1 0 0
BITMAP
00
ENDCHAR
ENDFONT
